#N canvas 2806 23 316 1005 12;
#X msg 24 267 addcomma;
#X obj 24 239 t b a;
#X msg 196 240 \$1-preset-\$2;
#X obj 24 81 t b b b, f 25;
#X obj 24 302 s, f 25;
#X obj 196 265 symbol;
#X text 24 328 Load Preset;
#X obj 24 39 inlet;
#X obj 256 74 inlet;
#X obj 24 114 array get \$2-\$1;
#X obj 196 141 pack \$2 f;
#X obj 24 146 list prepend \$1;
#X obj 24 177 list prepend add2;
#X obj 24 202 list trim;
#X obj 26 385 route \$1;
#X obj 26 413 array set \$2-\$1;
#X obj 26 360 r \$2-preset;
#X connect 0 0 4 0;
#X connect 1 0 0 0;
#X connect 1 1 4 0;
#X connect 2 0 5 0;
#X connect 3 0 9 0;
#X connect 3 2 10 0;
#X connect 5 0 4 1;
#X connect 7 0 3 0;
#X connect 8 0 10 1;
#X connect 9 0 11 0;
#X connect 10 0 2 0;
#X connect 11 0 12 0;
#X connect 12 0 13 0;
#X connect 13 0 1 0;
#X connect 14 0 15 0;
#X connect 16 0 14 0;
