#N canvas 2086 23 236 977 12;
#X obj 101 103 vsl 24 68 0 127 0 0 empty empty 1 1 65 0 12 #faff00 #c6ffc7 #ff0400 0 1;
#X msg 215 122 label \$1;
#X obj 215 210 makefilename %s;
#X obj 182 212 int;
#N canvas 2086 23 238 999 keyboard-input 1;
#X obj 123 76 inlet;
#X obj 60 305 spigot;
#X obj 123 155 tgl 20 0 empty empty empty 0 -10 0 12 #fcfcfc #000000 #000000 0 1;
#X msg 285 276 0;
#X obj 123 188 t b f f;
#X obj 106 539 list append, f 57;
#X obj 106 467 t b f, f 10;
#X obj 106 506 list;
#X obj 478 254 bng 20 250 50 0 empty empty empty 0 -10 0 12 #fcfcfc #000000 #000000;
#X obj 478 279 t b b b;
#X obj 82 592 list;
#X obj 215 114 loadbang;
#X msg 217 142 0;
#X obj 29 652 list trim;
#X obj 114 652 list length;
#X obj 82 617 t l l;
#X obj 114 687 array size \$0-ssl;
#X obj 460 766 array set \$0-ssl;
#X obj 29 849 tabread \$0-ssl;
#X obj 29 762 f;
#N canvas 2326 23 476 1005 countdown 0;
#X obj 228 331 f;
#X obj 228 214 until;
#X obj 228 279 t b b;
#X obj 228 91 inlet;
#X text 42 29 Count up until a certain numer in setps of 1;
#X obj 240 391 outlet;
#X obj 268 331 - 1;
#X obj 323 340 f;
#X obj 323 397 outlet;
#X obj 363 340 + 1;
#X msg 383 182 0;
#X obj 228 163 t f f b;
#X connect 0 0 6 0;
#X connect 1 0 2 0;
#X connect 2 0 0 0;
#X connect 2 1 7 0;
#X connect 3 0 11 0;
#X connect 6 0 0 1;
#X connect 6 0 5 0;
#X connect 7 0 9 0;
#X connect 7 0 8 0;
#X connect 9 0 7 1;
#X connect 10 0 7 1;
#X connect 11 0 1 0;
#X connect 11 1 0 1;
#X connect 11 2 10 0;
#X restore 29 820 pd countdown;
#X obj 362 79 array define \$0-ssl;
#X obj 211 862 expr pow(10 \, $f1);
#X obj 134 919 + 0;
#X obj 29 885 *;
#X obj 29 787 t f f;
#X text 126 44 Enable to type a number into the hslider;
#X obj 116 989 outlet;
#X obj 29 721 t b b l, f 62;
#X msg 244 782 0;
#X obj 177 923 f;
#X obj 116 956 f;
#X msg 123 110 1;
#X obj 426 128 r ssl-other-click;
#X obj 427 207 sel 0;
#X msg 378 200 0;
#X obj 426 153 t f b;
#X obj 427 182 == \$0;
#N canvas 2326 23 958 1005 sel-digits 0;
#X obj 99 304 key, f 18;
#X msg 100 378 1;
#X obj 99 329 sel 49 50 51 52 53 54 55 56 57 48, f 59;
#X msg 142 380 2;
#X msg 185 377 3;
#X msg 228 380 4;
#X msg 270 382 5;
#X msg 313 379 6;
#X msg 367 386 7;
#X msg 410 383 8;
#X msg 450 385 9;
#X msg 494 385 0;
#X obj 109 484 outlet;
#X obj 606 303 key;
#X obj 606 328 sel 10;
#X obj 606 353 outlet;
#X connect 0 0 2 0;
#X connect 1 0 12 0;
#X connect 2 0 1 0;
#X connect 2 1 3 0;
#X connect 2 2 4 0;
#X connect 2 3 5 0;
#X connect 2 4 6 0;
#X connect 2 5 7 0;
#X connect 2 6 8 0;
#X connect 2 7 9 0;
#X connect 2 8 10 0;
#X connect 2 9 11 0;
#X connect 3 0 12 0;
#X connect 4 0 12 0;
#X connect 5 0 12 0;
#X connect 6 0 12 0;
#X connect 7 0 12 0;
#X connect 8 0 12 0;
#X connect 9 0 12 0;
#X connect 10 0 12 0;
#X connect 11 0 12 0;
#X connect 13 0 14 0;
#X connect 14 0 15 0;
#X restore 60 271 pd sel-digits;
#X obj 158 307 spigot;
#X obj 158 336 t b b b;
#X connect 0 0 32 0;
#X connect 1 0 6 0;
#X connect 2 0 4 0;
#X connect 3 0 2 0;
#X connect 4 0 8 0;
#X connect 4 2 1 1;
#X connect 4 2 39 1;
#X connect 5 0 7 1;
#X connect 5 0 10 1;
#X connect 6 0 7 0;
#X connect 6 1 5 1;
#X connect 7 0 5 0;
#X connect 8 0 9 0;
#X connect 9 1 5 1;
#X connect 9 2 7 1;
#X connect 10 0 15 0;
#X connect 11 0 12 0;
#X connect 12 0 2 0;
#X connect 13 0 28 0;
#X connect 14 0 16 0;
#X connect 14 0 19 1;
#X connect 15 0 13 0;
#X connect 15 1 14 0;
#X connect 18 0 24 0;
#X connect 19 0 25 0;
#X connect 20 0 18 0;
#X connect 20 1 22 0;
#X connect 22 0 24 1;
#X connect 23 0 30 0;
#X connect 23 0 31 1;
#X connect 24 0 23 0;
#X connect 25 0 20 0;
#X connect 28 0 19 0;
#X connect 28 1 29 0;
#X connect 28 2 17 0;
#X connect 29 0 30 1;
#X connect 29 0 23 1;
#X connect 30 0 23 1;
#X connect 31 0 27 0;
#X connect 32 0 2 0;
#X connect 33 0 36 0;
#X connect 34 0 35 0;
#X connect 35 0 2 0;
#X connect 36 0 37 0;
#X connect 37 0 34 0;
#X connect 38 0 1 0;
#X connect 38 1 39 0;
#X connect 39 0 40 0;
#X connect 40 0 31 0;
#X connect 40 1 10 0;
#X connect 40 2 3 0;
#X restore 18 361 pd keyboard-input;
#X obj 65 273 ==;
#X obj 61 242 f;
#X obj 55 192 t f b f;
#X obj 65 298 sel 1 0;
#N canvas 0 0 476 1005 gui-properties 0;
#X floatatom 308 48 4 -150 200 0 - - - 0;
#X obj 350 75 t b f;
#X floatatom 350 48 5 -150 150 0 - - - 0;
#X msg 308 145 label_pos \$1 \$2;
#X obj 308 104 pack 135 10;
#X floatatom 60 73 3 0 29 0 - - - 0;
#X floatatom 96 73 3 0 29 0 - - - 0;
#X floatatom 165 78 3 0 29 0 - - - 0;
#X text 92 53 front;
#X text 158 53 label;
#X obj 96 102 t b f;
#X obj 165 104 t b f;
#X msg 60 172 color \$1 \$2 \$3;
#X obj 60 135 pack 0 22 22, f 20;
#X text 169 172 presets;
#X text 9 53 background;
#X obj 109 273 outlet;
#X text 303 24 label offset:;
#X connect 0 0 4 0;
#X connect 1 0 4 0;
#X connect 1 1 4 1;
#X connect 2 0 1 0;
#X connect 3 0 16 0;
#X connect 4 0 3 0;
#X connect 5 0 13 0;
#X connect 6 0 10 0;
#X connect 7 0 11 0;
#X connect 10 0 13 0;
#X connect 10 1 13 1;
#X connect 11 0 13 0;
#X connect 11 1 13 2;
#X connect 12 0 16 0;
#X connect 13 0 12 0;
#X restore 191 -16 pd gui-properties;
#X obj 36 -32 inlet;
#X obj 182 311 outlet;
#X msg 94 30 range \$1 \$2;
#X obj 372 56 pack \$1 \$2;
#X obj 372 22 loadbang;
#X obj 36 -7 route float range;
#X obj 372 88 unpack f f;
#X obj 372 124 +;
#X obj 372 149 == 0;
#X obj 372 174 sel 1;
#X obj 408 199 pack \$1 \$2;
#X msg 353 241 range \$1 \$2;
#X msg 353 210 0 127;
#X obj 169 449 s ssl-other-click;
#X obj 169 420 \$0;
#X obj 169 375 t b;
#X connect 0 0 3 0;
#X connect 0 0 7 0;
#X connect 0 0 25 0;
#X connect 1 0 0 0;
#X connect 2 0 1 0;
#X connect 3 0 2 0;
#X connect 3 0 11 0;
#X connect 4 0 0 0;
#X connect 5 0 8 0;
#X connect 6 0 5 0;
#X connect 7 0 6 1;
#X connect 7 1 6 0;
#X connect 7 2 5 1;
#X connect 8 0 4 0;
#X connect 9 0 0 0;
#X connect 10 0 15 0;
#X connect 12 0 0 0;
#X connect 13 0 16 0;
#X connect 14 0 13 0;
#X connect 15 0 0 0;
#X connect 15 1 12 0;
#X connect 16 0 17 0;
#X connect 16 1 17 1;
#X connect 17 0 18 0;
#X connect 18 0 19 0;
#X connect 19 0 22 0;
#X connect 19 1 20 0;
#X connect 20 0 21 0;
#X connect 21 0 0 0;
#X connect 22 0 21 0;
#X connect 24 0 23 0;
#X connect 25 0 24 0;
#X coords 0 -1 1 1 26 75 2 100 100;
