#N canvas 1 84 450 452 12;
#X obj 228 291 f;
#X obj 228 214 until;
#X obj 268 291 + 1;
#X obj 228 239 t b b;
#X obj 228 163 t f b;
#X msg 311 205 0;
#X obj 228 127 \$1;
#X obj 228 91 inlet;
#X text 42 29 Count up until a certain numer in setps of 1;
#X obj 228 316 outlet;
#X connect 0 0 2 0;
#X connect 0 0 9 0;
#X connect 1 0 3 0;
#X connect 2 0 0 1;
#X connect 3 0 0 0;
#X connect 4 0 1 0;
#X connect 4 1 5 0;
#X connect 5 0 0 1;
#X connect 6 0 4 0;
#X connect 7 0 6 0;
